# Blender v2.91.0 OBJ File: 'Central_Pilar.blend'
# www.blender.org
mtllib Central_Pilar.mtl
o Pillar4_Plane.012
v -0.600000 -0.300000 0.600000
v -0.600000 0.000000 0.600000
v -0.401903 0.200000 0.401903
v -0.401903 0.400000 0.401903
v -0.470342 0.300000 0.470342
v -0.401903 1.700000 0.401903
v -0.401903 1.900000 0.401903
v -0.401903 3.700000 0.401903
v -0.472613 1.700000 0.472614
v -0.472613 1.900000 0.472614
v -0.474704 3.700000 0.474705
v -0.474704 3.900001 0.474705
v -0.202047 4.200000 0.202047
v -0.300984 4.005001 0.300985
v 0.599999 -0.300000 0.600000
v 0.599999 0.000000 0.600000
v 0.401903 0.200000 0.401904
v 0.401903 0.400000 0.401904
v 0.470342 0.300000 0.470343
v 0.401903 1.700000 0.401904
v 0.401903 1.900000 0.401904
v 0.401903 3.700000 0.401904
v 0.472613 1.700000 0.472614
v 0.472613 1.900000 0.472614
v 0.474704 3.700000 0.474705
v 0.474704 3.900001 0.474705
v 0.202046 4.200000 0.202047
v 0.300984 4.005001 0.300985
v -0.000000 -0.300000 0.600000
v -0.000000 0.000000 0.600000
v -0.000000 0.200000 0.401904
v -0.000000 0.400000 0.401904
v -0.000000 0.300000 0.470343
v -0.000000 1.700000 0.401904
v -0.000000 1.900000 0.401904
v -0.000000 3.700000 0.401904
v -0.000000 1.700000 0.472614
v -0.000000 1.900000 0.472614
v -0.000000 3.700000 0.474705
v -0.000000 3.900001 0.474705
v -0.000000 4.200000 0.202047
v -0.000000 4.005001 0.300985
v -0.599999 -0.300000 -0.600000
v -0.599999 0.000000 -0.600000
v -0.401903 0.200000 -0.401904
v -0.401903 0.400000 -0.401904
v -0.470342 0.300000 -0.470343
v -0.401903 1.700000 -0.401904
v -0.401903 1.900000 -0.401904
v -0.401903 3.700000 -0.401904
v -0.472613 1.700000 -0.472614
v -0.472613 1.900000 -0.472614
v -0.474704 3.700000 -0.474705
v -0.474704 3.900001 -0.474705
v -0.202046 4.200000 -0.202047
v -0.300984 4.005001 -0.300985
v -0.600000 -0.300000 -0.000000
v -0.600000 0.000000 -0.000000
v -0.401903 0.200000 -0.000000
v -0.401903 0.400000 -0.000000
v -0.470342 0.300000 -0.000000
v -0.401903 1.700000 -0.000000
v -0.401903 1.900000 -0.000000
v -0.401903 3.700000 -0.000000
v -0.472613 1.700000 -0.000000
v -0.472613 1.900000 -0.000000
v -0.474704 3.700000 -0.000000
v -0.474704 3.900001 -0.000000
v -0.202047 4.200000 -0.000000
v -0.300984 4.005001 -0.000000
v 0.600000 -0.300000 -0.600000
v 0.600000 0.000000 -0.600000
v 0.401903 0.200000 -0.401903
v 0.401903 0.400000 -0.401903
v 0.470342 0.300000 -0.470342
v 0.401903 1.700000 -0.401903
v 0.401903 1.900000 -0.401903
v 0.401903 3.700000 -0.401903
v 0.472613 1.700000 -0.472614
v 0.472613 1.900000 -0.472614
v 0.474704 3.700000 -0.474705
v 0.474704 3.900001 -0.474705
v 0.202047 4.200000 -0.202047
v 0.300984 4.005001 -0.300985
v 0.000000 -0.300000 -0.600000
v 0.000000 0.000000 -0.600000
v 0.000000 0.200000 -0.401904
v 0.000000 0.400000 -0.401904
v 0.000000 0.300000 -0.470343
v 0.000000 1.700000 -0.401904
v 0.000000 1.900000 -0.401904
v 0.000000 3.700000 -0.401904
v 0.000000 1.700000 -0.472614
v 0.000000 1.900000 -0.472614
v 0.000000 3.700000 -0.474705
v 0.000000 3.900001 -0.474705
v 0.000000 4.200000 -0.202047
v 0.000000 4.005001 -0.300985
v 0.600000 -0.300000 0.000000
v 0.600000 0.000000 0.000000
v 0.401903 0.200000 0.000000
v 0.401903 0.400000 0.000000
v 0.470342 0.300000 0.000000
v 0.401903 1.700000 0.000000
v 0.401903 1.900000 0.000000
v 0.401903 3.700000 0.000000
v 0.472613 1.700000 0.000000
v 0.472613 1.900000 0.000000
v 0.474704 3.700000 0.000000
v 0.474704 3.900001 0.000000
v 0.202047 4.200000 0.000000
v 0.300984 4.005001 0.000000
v 0.000000 4.200000 0.000000
vt 0.630885 0.497313
vt 0.469032 0.848591
vt 0.469031 0.497313
vt 0.250462 0.421296
vt 0.088609 0.882884
vt 0.088609 0.421296
vt 0.088608 0.421296
vt 0.250462 0.882884
vt 0.469032 0.497313
vt 0.630885 0.848591
vt 0.469032 0.848591
vt 0.630885 0.497313
vt 0.469031 0.497313
vt 0.088609 0.882884
vt 0.250462 0.421296
vt 0.088609 0.421296
vt 0.250462 0.882884
vt 0.630885 0.848591
vt 0.630885 0.497313
vt 0.250462 0.421296
vt 0.250462 0.882884
vt 0.088608 0.421296
vt 0.630885 0.848591
vt 0.469032 0.497313
vt 0.630885 0.497313
vt 0.250462 0.421296
vt 0.250462 0.882884
vt 0.630885 0.848591
vt 0.088609 0.882884
vt 0.469032 0.848591
vt 0.088609 0.882884
vt 0.469032 0.848591
vt 0.445873 0.325058
vt 0.325058 0.566689
vt 0.325058 0.325058
vt 0.559238 0.486912
vt 0.445873 0.566689
vt 0.608038 0.325058
vt 0.656839 0.486912
vt 0.608038 0.514473
vt 0.559238 0.325058
vt 0.434078 0.999730
vt 0.353534 0.809400
vt 0.434078 0.809400
vt 0.325058 0.647546
vt 0.353534 0.809400
vt 0.325058 0.809400
vt 0.462554 0.971254
vt 0.462554 0.809400
vt 0.874316 0.278469
vt 0.774228 0.060257
vt 0.917160 0.065197
vt 0.913263 0.278847
vt 0.954508 0.072668
vt 0.682499 0.809400
vt 0.601131 0.890768
vt 0.601131 0.809400
vt 0.643424 0.101453
vt 0.551447 0.286994
vt 0.501327 0.155695
vt 0.703825 0.285952
vt 0.647734 0.465770
vt 0.774123 0.501879
vt 0.812826 0.286975
vt 0.914899 0.504974
vt 0.434078 0.809400
vt 0.353534 0.619070
vt 0.434078 0.619070
vt 0.462554 0.647546
vt 0.325058 0.971254
vt 0.353534 0.999730
vt 0.656839 0.647006
vt 0.608038 0.808860
vt 0.608038 0.619444
vt 0.559238 0.647006
vt 0.559238 0.808860
vt 0.445873 0.808860
vt 0.445873 0.567229
vt 0.325058 0.808860
vt 0.325058 0.567229
vt 0.325058 0.566689
vt 0.559238 0.486912
vt 0.656839 0.486912
vt 0.656839 0.325058
vt 0.353534 0.809400
vt 0.434078 0.999730
vt 0.434078 0.809400
vt 0.325058 0.647546
vt 0.462554 0.971254
vt 0.462554 0.809400
vt 0.774228 0.060257
vt 0.874316 0.278469
vt 0.917160 0.065197
vt 0.913263 0.278847
vt 0.954508 0.072668
vt 0.682499 0.809400
vt 0.643424 0.101453
vt 0.551447 0.286994
vt 0.703825 0.285952
vt 0.812826 0.286975
vt 0.353534 0.619070
vt 0.434078 0.619070
vt 0.954508 0.497503
vt 0.462554 0.647546
vt 0.462554 0.809400
vt 0.325058 0.971254
vt 0.325058 0.809400
vt 0.608038 0.808860
vt 0.656839 0.647006
vt 0.608038 0.619444
vt 0.559238 0.647006
vt 0.445873 0.808860
vt 0.445873 0.567229
vt 0.325058 0.808860
vt 0.325058 0.567229
vt 0.325058 0.566689
vt 0.445873 0.325058
vt 0.325058 0.325058
vt 0.559238 0.486912
vt 0.559238 0.325058
vt 0.608038 0.325058
vt 0.656839 0.486912
vt 0.656839 0.325058
vt 0.434078 0.999730
vt 0.353534 0.809400
vt 0.325058 0.647546
vt 0.325058 0.809400
vt 0.462554 0.971254
vt 0.874316 0.278469
vt 0.913263 0.278847
vt 0.601131 0.890768
vt 0.551447 0.286994
vt 0.703825 0.285952
vt 0.812826 0.286975
vt 0.647734 0.465770
vt 0.774123 0.501879
vt 0.914899 0.504974
vt 0.353534 0.619070
vt 0.434078 0.809400
vt 0.434078 0.619070
vt 0.954508 0.497503
vt 0.462554 0.647546
vt 0.462554 0.809400
vt 0.325058 0.971254
vt 0.325058 0.809400
vt 0.656839 0.647006
vt 0.608038 0.619444
vt 0.559238 0.647006
vt 0.445873 0.567229
vt 0.325058 0.567229
vt 0.325058 0.566689
vt 0.559238 0.486912
vt 0.445873 0.566689
vt 0.656839 0.486912
vt 0.608038 0.514473
vt 0.434078 0.999730
vt 0.325058 0.647546
vt 0.462554 0.971254
vt 0.874316 0.278469
vt 0.913263 0.278847
vt 0.551447 0.286994
vt 0.501327 0.155695
vt 0.703825 0.285952
vt 0.812826 0.286975
vt 0.353534 0.619070
vt 0.434078 0.619070
vt 0.462554 0.647546
vt 0.325058 0.971254
vt 0.353534 0.999730
vt 0.656839 0.647006
vt 0.608038 0.619444
vt 0.559238 0.647006
vt 0.559238 0.808860
vt 0.445873 0.567229
vt 0.325058 0.567229
vt 0.682499 0.890768
vt 0.506685 0.417325
vt 0.656839 0.808860
vt 0.445873 0.566689
vt 0.608038 0.514473
vt 0.353534 0.999730
vt 0.682499 0.890768
vt 0.656839 0.808860
vt 0.445873 0.566689
vt 0.608038 0.514473
vt 0.353534 0.999730
vt 0.682499 0.890768
vt 0.506685 0.417325
vt 0.682499 0.890768
vn -1.0000 0.0000 -0.0000
vn -0.0000 0.0000 1.0000
vn 1.0000 0.0000 0.0000
vn 0.0000 0.0000 -1.0000
vn -0.0000 0.7037 0.7105
vn -0.0000 0.5648 0.8252
vn -0.0000 -0.5648 0.8252
vn 0.0000 1.0000 -0.0000
vn 0.0000 -1.0000 -0.0000
vn -0.8918 0.4525 -0.0000
vn -0.5173 0.8558 -0.0000
vn -0.0000 0.4525 0.8918
vn -0.0000 0.8558 0.5173
vn -0.8252 0.5648 -0.0000
vn -0.8252 -0.5648 -0.0000
vn -0.7105 0.7037 -0.0000
vn 0.8918 0.4525 0.0000
vn 0.5173 0.8558 0.0000
vn 0.8252 0.5648 0.0000
vn 0.8252 -0.5648 0.0000
vn 0.7105 0.7037 0.0000
vn 0.0000 0.7037 -0.7105
vn 0.0000 0.5648 -0.8252
vn 0.0000 -0.5648 -0.8252
vn 0.0000 0.4525 -0.8918
vn 0.0000 0.8558 -0.5173
usemtl Wall
s off
f 4/1/1 62/2/1 60/3/1
f 7/4/1 64/5/1 63/6/1
f 35/7/2 8/8/2 7/4/2
f 32/9/2 6/10/2 4/1/2
f 104/11/3 18/12/3 102/13/3
f 106/14/3 21/15/3 105/16/3
f 22/17/2 35/7/2 21/15/2
f 20/18/2 32/9/2 18/12/2
f 62/2/1 46/19/1 60/3/1
f 64/5/1 49/20/1 63/6/1
f 50/21/4 91/22/4 49/20/4
f 48/23/4 88/24/4 46/19/4
f 74/25/3 104/11/3 102/13/3
f 77/26/3 106/14/3 105/16/3
f 91/22/4 78/27/4 77/26/4
f 88/24/4 76/28/4 74/25/4
f 4/1/1 6/10/1 62/2/1
f 7/4/1 8/8/1 64/5/1
f 35/7/2 36/29/2 8/8/2
f 32/9/2 34/30/2 6/10/2
f 104/11/3 20/18/3 18/12/3
f 106/14/3 22/17/3 21/15/3
f 22/17/2 36/29/2 35/7/2
f 20/18/2 34/30/2 32/9/2
f 62/2/1 48/23/1 46/19/1
f 64/5/1 50/21/1 49/20/1
f 50/21/4 92/31/4 91/22/4
f 48/23/4 90/32/4 88/24/4
f 74/25/3 76/28/3 104/11/3
f 77/26/3 78/27/3 106/14/3
f 91/22/4 92/31/4 78/27/4
f 88/24/4 90/32/4 76/28/4
usemtl Concrete
f 30/33/2 1/34/2 29/35/2
f 30/33/5 3/36/5 2/37/5
f 33/38/6 4/39/6 5/40/6
f 33/38/7 3/36/7 31/41/7
f 9/42/1 66/43/1 65/44/1
f 7/45/8 38/46/8 35/47/8
f 6/48/9 65/44/9 62/49/9
f 11/50/1 68/51/1 67/52/1
f 8/53/9 67/52/9 64/54/9
f 69/55/8 41/56/8 113/57/8
f 70/58/10 13/59/10 69/60/10
f 68/51/11 14/61/11 70/58/11
f 42/62/12 13/59/12 14/61/12
f 40/63/13 14/61/13 12/64/13
f 39/65/2 12/64/2 11/50/2
f 37/66/2 10/67/2 9/68/2
f 8/53/9 39/65/9 11/50/9
f 6/69/9 37/66/9 9/68/9
f 7/70/8 66/43/8 10/71/8
f 4/72/14 61/73/14 5/74/14
f 3/75/15 61/73/15 59/76/15
f 3/75/16 58/77/16 2/78/16
f 2/78/1 57/79/1 1/80/1
f 15/81/2 30/33/2 29/35/2
f 30/33/5 17/82/5 31/41/5
f 33/38/6 18/83/6 32/84/6
f 17/82/7 33/38/7 31/41/7
f 108/85/3 23/86/3 107/87/3
f 38/46/8 21/88/8 35/47/8
f 107/87/9 20/89/9 104/90/9
f 110/91/3 25/92/3 109/93/3
f 109/93/9 22/94/9 106/95/9
f 41/56/8 111/96/8 113/57/8
f 112/97/17 27/98/17 28/99/17
f 110/91/18 28/99/18 26/100/18
f 27/98/12 42/62/12 28/99/12
f 28/99/13 40/63/13 26/100/13
f 26/100/2 39/65/2 25/92/2
f 24/101/2 37/66/2 23/102/2
f 22/94/9 39/65/9 36/103/9
f 20/104/9 37/66/9 34/105/9
f 21/106/8 108/85/8 105/107/8
f 103/108/19 18/109/19 19/110/19
f 17/111/20 103/108/20 19/110/20
f 100/112/21 17/111/21 16/113/21
f 99/114/3 16/113/3 15/115/3
f 43/116/4 86/117/4 85/118/4
f 86/117/22 45/119/22 87/120/22
f 89/121/23 46/122/23 88/123/23
f 45/119/24 89/121/24 87/120/24
f 66/43/1 51/124/1 65/44/1
f 94/125/8 49/126/8 91/127/8
f 65/44/9 48/128/9 62/49/9
f 68/51/1 53/129/1 67/52/1
f 67/52/9 50/130/9 64/54/9
f 97/131/8 69/55/8 113/57/8
f 70/58/10 55/132/10 56/133/10
f 68/51/11 56/133/11 54/134/11
f 55/132/25 98/135/25 56/133/25
f 56/133/26 96/136/26 54/134/26
f 54/134/4 95/137/4 53/129/4
f 52/138/4 93/139/4 51/140/4
f 50/130/9 95/137/9 92/141/9
f 48/142/9 93/139/9 90/143/9
f 49/144/8 66/43/8 63/145/8
f 61/73/14 46/146/14 47/147/14
f 45/148/15 61/73/15 47/147/15
f 58/77/16 45/148/16 44/149/16
f 57/79/1 44/149/1 43/150/1
f 86/117/4 71/151/4 85/118/4
f 86/117/22 73/152/22 72/153/22
f 89/121/23 74/154/23 75/155/23
f 89/121/24 73/152/24 87/120/24
f 79/156/3 108/85/3 107/87/3
f 77/157/8 94/125/8 91/127/8
f 76/158/9 107/87/9 104/90/9
f 81/159/3 110/91/3 109/93/3
f 78/160/9 109/93/9 106/95/9
f 111/96/8 97/131/8 113/57/8
f 112/97/17 83/161/17 111/162/17
f 110/91/18 84/163/18 112/97/18
f 98/135/25 83/161/25 84/163/25
f 96/136/26 84/163/26 82/164/26
f 95/137/4 82/164/4 81/159/4
f 93/139/4 80/165/4 79/166/4
f 78/160/9 95/137/9 81/159/9
f 76/167/9 93/139/9 79/166/9
f 77/168/8 108/85/8 80/169/8
f 74/170/19 103/108/19 75/171/19
f 73/172/20 103/108/20 101/173/20
f 73/172/21 100/112/21 72/174/21
f 72/174/3 99/114/3 71/175/3
f 30/33/2 2/37/2 1/34/2
f 30/33/5 31/41/5 3/36/5
f 33/38/6 32/84/6 4/39/6
f 33/38/7 5/40/7 3/36/7
f 9/42/1 10/71/1 66/43/1
f 7/45/8 10/67/8 38/46/8
f 6/48/9 9/42/9 65/44/9
f 11/50/1 12/64/1 68/51/1
f 8/53/9 11/50/9 67/52/9
f 69/55/8 13/176/8 41/56/8
f 70/58/10 14/61/10 13/59/10
f 68/51/11 12/64/11 14/61/11
f 42/62/12 41/177/12 13/59/12
f 40/63/13 42/62/13 14/61/13
f 39/65/2 40/63/2 12/64/2
f 37/66/2 38/46/2 10/67/2
f 8/53/9 36/103/9 39/65/9
f 6/69/9 34/105/9 37/66/9
f 7/70/8 63/145/8 66/43/8
f 4/72/14 60/178/14 61/73/14
f 3/75/15 5/74/15 61/73/15
f 3/75/16 59/76/16 58/77/16
f 2/78/1 58/77/1 57/79/1
f 15/81/2 16/179/2 30/33/2
f 30/33/5 16/179/5 17/82/5
f 33/38/6 19/180/6 18/83/6
f 17/82/7 19/180/7 33/38/7
f 108/85/3 24/181/3 23/86/3
f 38/46/8 24/101/8 21/88/8
f 107/87/9 23/86/9 20/89/9
f 110/91/3 26/100/3 25/92/3
f 109/93/9 25/92/9 22/94/9
f 41/56/8 27/182/8 111/96/8
f 112/97/17 111/162/17 27/98/17
f 110/91/18 112/97/18 28/99/18
f 27/98/12 41/177/12 42/62/12
f 28/99/13 42/62/13 40/63/13
f 26/100/2 40/63/2 39/65/2
f 24/101/2 38/46/2 37/66/2
f 22/94/9 25/92/9 39/65/9
f 20/104/9 23/102/9 37/66/9
f 21/106/8 24/181/8 108/85/8
f 103/108/19 102/183/19 18/109/19
f 17/111/20 101/173/20 103/108/20
f 100/112/21 101/173/21 17/111/21
f 99/114/3 100/112/3 16/113/3
f 43/116/4 44/184/4 86/117/4
f 86/117/22 44/184/22 45/119/22
f 89/121/23 47/185/23 46/122/23
f 45/119/24 47/185/24 89/121/24
f 66/43/1 52/186/1 51/124/1
f 94/125/8 52/138/8 49/126/8
f 65/44/9 51/124/9 48/128/9
f 68/51/1 54/134/1 53/129/1
f 67/52/9 53/129/9 50/130/9
f 97/131/8 55/187/8 69/55/8
f 70/58/10 69/60/10 55/132/10
f 68/51/11 70/58/11 56/133/11
f 55/132/25 97/188/25 98/135/25
f 56/133/26 98/135/26 96/136/26
f 54/134/4 96/136/4 95/137/4
f 52/138/4 94/125/4 93/139/4
f 50/130/9 53/129/9 95/137/9
f 48/142/9 51/140/9 93/139/9
f 49/144/8 52/186/8 66/43/8
f 61/73/14 60/178/14 46/146/14
f 45/148/15 59/76/15 61/73/15
f 58/77/16 59/76/16 45/148/16
f 57/79/1 58/77/1 44/149/1
f 86/117/4 72/153/4 71/151/4
f 86/117/22 87/120/22 73/152/22
f 89/121/23 88/123/23 74/154/23
f 89/121/24 75/155/24 73/152/24
f 79/156/3 80/169/3 108/85/3
f 77/157/8 80/165/8 94/125/8
f 76/158/9 79/156/9 107/87/9
f 81/159/3 82/164/3 110/91/3
f 78/160/9 81/159/9 109/93/9
f 111/96/8 83/189/8 97/131/8
f 112/97/17 84/163/17 83/161/17
f 110/91/18 82/164/18 84/163/18
f 98/135/25 97/188/25 83/161/25
f 96/136/26 98/135/26 84/163/26
f 95/137/4 96/136/4 82/164/4
f 93/139/4 94/125/4 80/165/4
f 78/160/9 92/141/9 95/137/9
f 76/167/9 90/143/9 93/139/9
f 77/168/8 105/107/8 108/85/8
f 74/170/19 102/183/19 103/108/19
f 73/172/20 75/171/20 103/108/20
f 73/172/21 101/173/21 100/112/21
f 72/174/3 100/112/3 99/114/3
