# Blender v2.91.0 OBJ File: 'Four_Pilar.blend'
# www.blender.org
mtllib Four_Pilar.mtl
o Pillar_Split_Plane.016
v -1.400000 0.000000 -1.400000
v -1.400000 0.300000 -1.400000
v -1.598097 0.500000 -1.598097
v -1.598097 0.700000 -1.598097
v -1.529658 0.600000 -1.529658
v -1.598097 2.000000 -1.598097
v -1.598097 2.200000 -1.598097
v -1.598097 4.000000 -1.598097
v -1.527386 2.000000 -1.527387
v -1.527386 2.200000 -1.527387
v -1.525295 4.000000 -1.525296
v -1.525295 4.200000 -1.525296
v -1.797953 4.500000 -1.797953
v -1.699015 4.305000 -1.699016
v -1.400000 0.000000 -2.000000
v -1.400000 0.300000 -2.000000
v -1.598096 0.500000 -2.000000
v -1.598096 0.700000 -2.000000
v -1.529657 0.600000 -2.000000
v -1.598096 2.000000 -2.000000
v -1.598096 2.200000 -2.000000
v -1.598096 4.000000 -2.000000
v -1.527386 2.000000 -2.000000
v -1.527386 2.200000 -2.000000
v -1.525295 4.000000 -2.000000
v -1.525295 4.200000 -2.000000
v -1.797953 4.500000 -2.000000
v -1.699015 4.305000 -2.000000
v -2.000000 0.000000 -1.400000
v -2.000000 0.300000 -1.400000
v -2.000000 0.500000 -1.598097
v -2.000000 0.700000 -1.598097
v -2.000000 0.600000 -1.529658
v -2.000000 2.000000 -1.598097
v -2.000000 2.200000 -1.598097
v -2.000000 4.000000 -1.598097
v -2.000000 2.000000 -1.527387
v -2.000000 2.200000 -1.527387
v -2.000000 4.000000 -1.525296
v -2.000000 4.200000 -1.525296
v -2.000000 4.500000 -1.797953
v -2.000000 4.305000 -1.699016
v -2.000000 4.500000 -2.000000
v 1.400000 0.000000 -1.400000
v 1.400000 0.300000 -1.400000
v 1.598097 0.500000 -1.598097
v 1.598097 0.700000 -1.598097
v 1.529658 0.600000 -1.529658
v 1.598097 2.000000 -1.598097
v 1.598097 2.200000 -1.598097
v 1.598097 4.000000 -1.598097
v 1.527386 2.000000 -1.527387
v 1.527386 2.200000 -1.527387
v 1.525295 4.000000 -1.525296
v 1.525295 4.200000 -1.525296
v 1.797953 4.500000 -1.797953
v 1.699015 4.305000 -1.699016
v 1.400000 0.000000 -2.000000
v 1.400000 0.300000 -2.000000
v 1.598096 0.500000 -2.000000
v 1.598096 0.700000 -2.000000
v 1.529657 0.600000 -2.000000
v 1.598096 2.000000 -2.000000
v 1.598096 2.200000 -2.000000
v 1.598096 4.000000 -2.000000
v 1.527386 2.000000 -2.000000
v 1.527386 2.200000 -2.000000
v 1.525295 4.000000 -2.000000
v 1.525295 4.200000 -2.000000
v 1.797953 4.500000 -2.000000
v 1.699015 4.305000 -2.000000
v 2.000000 0.000000 -1.400000
v 2.000000 0.300000 -1.400000
v 2.000000 0.500000 -1.598097
v 2.000000 0.700000 -1.598097
v 2.000000 0.600000 -1.529658
v 2.000000 2.000000 -1.598097
v 2.000000 2.200000 -1.598097
v 2.000000 4.000000 -1.598097
v 2.000000 2.000000 -1.527387
v 2.000000 2.200000 -1.527387
v 2.000000 4.000000 -1.525296
v 2.000000 4.200000 -1.525296
v 2.000000 4.500000 -1.797953
v 2.000000 4.305000 -1.699016
v 2.000000 4.500000 -2.000000
v -1.400000 0.000000 1.400000
v -1.400000 0.300000 1.400000
v -1.598097 0.500000 1.598097
v -1.598097 0.700000 1.598097
v -1.529658 0.600000 1.529658
v -1.598097 2.000000 1.598097
v -1.598097 2.200000 1.598097
v -1.598097 4.000000 1.598097
v -1.527386 2.000000 1.527387
v -1.527386 2.200000 1.527387
v -1.525295 4.000000 1.525296
v -1.525295 4.200000 1.525296
v -1.797953 4.500000 1.797953
v -1.699015 4.305000 1.699016
v -1.400000 0.000000 2.000000
v -1.400000 0.300000 2.000000
v -1.598096 0.500000 2.000000
v -1.598096 0.700000 2.000000
v -1.529657 0.600000 2.000000
v -1.598096 2.000000 2.000000
v -1.598096 2.200000 2.000000
v -1.598096 4.000000 2.000000
v -1.527386 2.000000 2.000000
v -1.527386 2.200000 2.000000
v -1.525295 4.000000 2.000000
v -1.525295 4.200000 2.000000
v -1.797953 4.500000 2.000000
v -1.699015 4.305000 2.000000
v -2.000000 0.000000 1.400000
v -2.000000 0.300000 1.400000
v -2.000000 0.500000 1.598097
v -2.000000 0.700000 1.598097
v -2.000000 0.600000 1.529658
v -2.000000 2.000000 1.598097
v -2.000000 2.200000 1.598097
v -2.000000 4.000000 1.598097
v -2.000000 2.000000 1.527387
v -2.000000 2.200000 1.527387
v -2.000000 4.000000 1.525296
v -2.000000 4.200000 1.525296
v -2.000000 4.500000 1.797953
v -2.000000 4.305000 1.699016
v -2.000000 4.500000 2.000000
v 1.400000 0.000000 1.400000
v 1.400000 0.300000 1.400000
v 1.598097 0.500000 1.598097
v 1.598097 0.700000 1.598097
v 1.529658 0.600000 1.529658
v 1.598097 2.000000 1.598097
v 1.598097 2.200000 1.598097
v 1.598097 4.000000 1.598097
v 1.527386 2.000000 1.527387
v 1.527386 2.200000 1.527387
v 1.525295 4.000000 1.525296
v 1.525295 4.200000 1.525296
v 1.797953 4.500000 1.797953
v 1.699015 4.305000 1.699016
v 1.400000 0.000000 2.000000
v 1.400000 0.300000 2.000000
v 1.598096 0.500000 2.000000
v 1.598096 0.700000 2.000000
v 1.529657 0.600000 2.000000
v 1.598096 2.000000 2.000000
v 1.598096 2.200000 2.000000
v 1.598096 4.000000 2.000000
v 1.527386 2.000000 2.000000
v 1.527386 2.200000 2.000000
v 1.525295 4.000000 2.000000
v 1.525295 4.200000 2.000000
v 1.797953 4.500000 2.000000
v 1.699015 4.305000 2.000000
v 2.000000 0.000000 1.400000
v 2.000000 0.300000 1.400000
v 2.000000 0.500000 1.598097
v 2.000000 0.700000 1.598097
v 2.000000 0.600000 1.529658
v 2.000000 2.000000 1.598097
v 2.000000 2.200000 1.598097
v 2.000000 4.000000 1.598097
v 2.000000 2.000000 1.527387
v 2.000000 2.200000 1.527387
v 2.000000 4.000000 1.525296
v 2.000000 4.200000 1.525296
v 2.000000 4.500000 1.797953
v 2.000000 4.305000 1.699016
v 2.000000 4.500000 2.000000
vt 0.469031 0.497313
vt 0.630885 0.497313
vt 0.630885 0.848592
vt 0.469032 0.848591
vt 0.088609 0.421296
vt 0.250462 0.421296
vt 0.250463 0.882884
vt 0.088609 0.882884
vt 0.088608 0.421296
vt 0.088609 0.882884
vt 0.469032 0.497313
vt 0.469032 0.848591
vt 0.469031 0.497313
vt 0.469032 0.848591
vt 0.630885 0.848592
vt 0.630885 0.497313
vt 0.088609 0.421296
vt 0.088609 0.882884
vt 0.250463 0.882884
vt 0.250462 0.421296
vt 0.088609 0.882884
vt 0.088608 0.421296
vt 0.469032 0.848591
vt 0.469032 0.497313
vt 0.469031 0.497313
vt 0.469032 0.848591
vt 0.630885 0.848592
vt 0.630885 0.497313
vt 0.088609 0.421296
vt 0.088609 0.882884
vt 0.250463 0.882884
vt 0.250462 0.421296
vt 0.088609 0.882884
vt 0.088608 0.421296
vt 0.469032 0.848591
vt 0.469032 0.497313
vt 0.469031 0.497313
vt 0.630885 0.497313
vt 0.630885 0.848592
vt 0.469032 0.848591
vt 0.088609 0.421296
vt 0.250462 0.421296
vt 0.250463 0.882884
vt 0.088609 0.882884
vt 0.088608 0.421296
vt 0.088609 0.882884
vt 0.469032 0.497313
vt 0.469032 0.848591
vt 0.325058 0.325058
vt 0.445873 0.325058
vt 0.445873 0.566689
vt 0.325058 0.566689
vt 0.559238 0.325058
vt 0.559238 0.486912
vt 0.608038 0.325058
vt 0.656839 0.325058
vt 0.656839 0.486912
vt 0.608038 0.514473
vt 0.434078 0.809400
vt 0.434078 0.999730
vt 0.353534 0.999730
vt 0.353534 0.809400
vt 0.325058 0.809400
vt 0.325058 0.647546
vt 0.353534 0.619070
vt 0.353534 0.809400
vt 0.462554 0.809400
vt 0.462554 0.971254
vt 0.917160 0.065197
vt 0.874316 0.278469
vt 0.812826 0.286975
vt 0.774228 0.060257
vt 0.954508 0.072668
vt 0.913263 0.278847
vt 0.601131 0.809400
vt 0.682499 0.809400
vt 0.682499 0.890768
vt 0.601131 0.890768
vt 0.643424 0.101453
vt 0.703825 0.285952
vt 0.551447 0.286994
vt 0.501327 0.155695
vt 0.647734 0.465770
vt 0.506685 0.417325
vt 0.774123 0.501879
vt 0.914899 0.504974
vt 0.434078 0.619070
vt 0.434078 0.809400
vt 0.954508 0.497503
vt 0.462554 0.647546
vt 0.462554 0.809400
vt 0.325058 0.971254
vt 0.325058 0.809400
vt 0.608038 0.619444
vt 0.656839 0.647006
vt 0.656839 0.808860
vt 0.608038 0.808860
vt 0.559238 0.647006
vt 0.559238 0.808860
vt 0.445873 0.567229
vt 0.445873 0.808860
vt 0.325058 0.567229
vt 0.325058 0.808860
vt 0.325058 0.325058
vt 0.325058 0.566689
vt 0.445873 0.566689
vt 0.445873 0.325058
vt 0.559238 0.486912
vt 0.559238 0.325058
vt 0.608038 0.325058
vt 0.608038 0.514473
vt 0.656839 0.486912
vt 0.656839 0.325058
vt 0.434078 0.809400
vt 0.353534 0.809400
vt 0.353534 0.999730
vt 0.434078 0.999730
vt 0.325058 0.809400
vt 0.353534 0.809400
vt 0.353534 0.619070
vt 0.325058 0.647546
vt 0.462554 0.809400
vt 0.462554 0.971254
vt 0.917160 0.065197
vt 0.774228 0.060257
vt 0.812826 0.286975
vt 0.874316 0.278469
vt 0.954508 0.072668
vt 0.913263 0.278847
vt 0.601131 0.809400
vt 0.601131 0.890768
vt 0.682499 0.890768
vt 0.682499 0.809400
vt 0.643424 0.101453
vt 0.501327 0.155695
vt 0.551447 0.286994
vt 0.703825 0.285952
vt 0.506685 0.417325
vt 0.647734 0.465770
vt 0.774123 0.501879
vt 0.914899 0.504974
vt 0.434078 0.619070
vt 0.434078 0.809400
vt 0.954508 0.497503
vt 0.462554 0.647546
vt 0.462554 0.809400
vt 0.325058 0.971254
vt 0.325058 0.809400
vt 0.608038 0.619444
vt 0.608038 0.808860
vt 0.656839 0.808860
vt 0.656839 0.647006
vt 0.559238 0.647006
vt 0.559238 0.808860
vt 0.445873 0.567229
vt 0.445873 0.808860
vt 0.325058 0.567229
vt 0.325058 0.808860
vt 0.325058 0.325058
vt 0.325058 0.566689
vt 0.445873 0.566689
vt 0.445873 0.325058
vt 0.559238 0.486912
vt 0.559238 0.325058
vt 0.608038 0.325058
vt 0.608038 0.514473
vt 0.656839 0.486912
vt 0.656839 0.325058
vt 0.434078 0.809400
vt 0.353534 0.809400
vt 0.353534 0.999730
vt 0.434078 0.999730
vt 0.325058 0.809400
vt 0.353534 0.809400
vt 0.353534 0.619070
vt 0.325058 0.647546
vt 0.462554 0.809400
vt 0.462554 0.971254
vt 0.917160 0.065197
vt 0.774228 0.060257
vt 0.812826 0.286975
vt 0.874316 0.278469
vt 0.954508 0.072668
vt 0.913263 0.278847
vt 0.601131 0.809400
vt 0.601131 0.890768
vt 0.682499 0.890768
vt 0.682499 0.809400
vt 0.643424 0.101453
vt 0.501327 0.155695
vt 0.551447 0.286994
vt 0.703825 0.285952
vt 0.506685 0.417325
vt 0.647734 0.465770
vt 0.774123 0.501879
vt 0.914899 0.504974
vt 0.434078 0.619070
vt 0.434078 0.809400
vt 0.954508 0.497503
vt 0.462554 0.647546
vt 0.462554 0.809400
vt 0.325058 0.971254
vt 0.325058 0.809400
vt 0.608038 0.619444
vt 0.608038 0.808860
vt 0.656839 0.808860
vt 0.656839 0.647006
vt 0.559238 0.647006
vt 0.559238 0.808860
vt 0.445873 0.567229
vt 0.445873 0.808860
vt 0.325058 0.567229
vt 0.325058 0.808860
vt 0.325058 0.325058
vt 0.445873 0.325058
vt 0.445873 0.566689
vt 0.325058 0.566689
vt 0.559238 0.325058
vt 0.559238 0.486912
vt 0.608038 0.325058
vt 0.656839 0.325058
vt 0.656839 0.486912
vt 0.608038 0.514473
vt 0.434078 0.809400
vt 0.434078 0.999730
vt 0.353534 0.999730
vt 0.353534 0.809400
vt 0.325058 0.809400
vt 0.325058 0.647546
vt 0.353534 0.619070
vt 0.353534 0.809400
vt 0.462554 0.809400
vt 0.462554 0.971254
vt 0.917160 0.065197
vt 0.874316 0.278469
vt 0.812826 0.286975
vt 0.774228 0.060257
vt 0.954508 0.072668
vt 0.913263 0.278847
vt 0.601131 0.809400
vt 0.682499 0.809400
vt 0.682499 0.890768
vt 0.601131 0.890768
vt 0.643424 0.101453
vt 0.703825 0.285952
vt 0.551447 0.286994
vt 0.501327 0.155695
vt 0.647734 0.465770
vt 0.506685 0.417325
vt 0.774123 0.501879
vt 0.914899 0.504974
vt 0.434078 0.619070
vt 0.434078 0.809400
vt 0.954508 0.497503
vt 0.462554 0.647546
vt 0.462554 0.809400
vt 0.325058 0.971254
vt 0.325058 0.809400
vt 0.608038 0.619444
vt 0.656839 0.647006
vt 0.656839 0.808860
vt 0.608038 0.808860
vt 0.559238 0.647006
vt 0.559238 0.808860
vt 0.445873 0.567229
vt 0.445873 0.808860
vt 0.325058 0.567229
vt 0.325058 0.808860
vn 0.0000 0.0000 1.0000
vn 1.0000 0.0000 0.0000
vn -1.0000 0.0000 0.0000
vn 0.0000 0.0000 -1.0000
vn 0.7105 0.7037 0.0000
vn 0.8252 0.5648 0.0000
vn 0.8252 -0.5648 0.0000
vn 0.0000 1.0000 0.0000
vn 0.0000 -1.0000 0.0000
vn 0.0000 0.4525 0.8918
vn 0.0000 0.8558 0.5173
vn 0.8918 0.4525 0.0000
vn 0.5173 0.8558 0.0000
vn -0.0000 0.5648 0.8252
vn -0.0000 -0.5648 0.8252
vn -0.0000 0.7037 0.7105
vn -0.7105 0.7037 0.0000
vn -0.8252 0.5648 0.0000
vn -0.8252 -0.5648 0.0000
vn -0.8918 0.4525 0.0000
vn -0.5173 0.8558 0.0000
vn 0.0000 0.4525 -0.8918
vn 0.0000 0.8558 -0.5173
vn -0.0000 0.5648 -0.8252
vn -0.0000 -0.5648 -0.8252
vn -0.0000 0.7037 -0.7105
usemtl Wall
s off
f 32/1/1 4/2/1 6/3/1 34/4/1
f 35/5/1 7/6/1 8/7/1 36/8/1
f 7/6/2 21/9/2 22/10/2 8/7/2
f 4/2/2 18/11/2 20/12/2 6/3/2
f 75/13/1 77/14/1 49/15/1 47/16/1
f 78/17/1 79/18/1 51/19/1 50/20/1
f 50/20/3 51/19/3 65/21/3 64/22/3
f 47/16/3 49/15/3 63/23/3 61/24/3
f 118/25/4 120/26/4 92/27/4 90/28/4
f 121/29/4 122/30/4 94/31/4 93/32/4
f 93/32/2 94/31/2 108/33/2 107/34/2
f 90/28/2 92/27/2 106/35/2 104/36/2
f 161/37/4 133/38/4 135/39/4 163/40/4
f 164/41/4 136/42/4 137/43/4 165/44/4
f 136/42/3 150/45/3 151/46/3 137/43/3
f 133/38/3 147/47/3 149/48/3 135/39/3
usemtl Concrete
f 15/49/2 16/50/2 2/51/2 1/52/2
f 16/50/5 17/53/5 3/54/5 2/51/5
f 19/55/6 18/56/6 4/57/6 5/58/6
f 17/53/7 19/55/7 5/58/7 3/54/7
f 37/59/1 9/60/1 10/61/1 38/62/1
f 21/63/8 7/64/8 10/65/8 24/66/8
f 34/67/9 6/68/9 9/60/9 37/59/9
f 39/69/1 11/70/1 12/71/1 40/72/1
f 36/73/9 8/74/9 11/70/9 39/69/9
f 43/75/8 41/76/8 13/77/8 27/78/8
f 42/79/10 14/80/10 13/81/10 41/82/10
f 40/72/11 12/71/11 14/80/11 42/79/11
f 14/80/12 28/83/12 27/84/12 13/81/12
f 12/71/13 26/85/13 28/83/13 14/80/13
f 11/70/2 25/86/2 26/85/2 12/71/2
f 9/87/2 23/88/2 24/66/2 10/65/2
f 8/74/9 22/89/9 25/86/9 11/70/9
f 6/90/9 20/91/9 23/88/9 9/87/9
f 7/92/8 35/93/8 38/62/8 10/61/8
f 5/94/14 4/95/14 32/96/14 33/97/14
f 3/98/15 5/94/15 33/97/15 31/99/15
f 2/100/16 3/98/16 31/99/16 30/101/16
f 1/102/1 2/100/1 30/101/1 29/103/1
f 58/104/3 44/105/3 45/106/3 59/107/3
f 59/107/17 45/106/17 46/108/17 60/109/17
f 62/110/18 48/111/18 47/112/18 61/113/18
f 60/109/19 46/108/19 48/111/19 62/110/19
f 80/114/1 81/115/1 53/116/1 52/117/1
f 64/118/8 67/119/8 53/120/8 50/121/8
f 77/122/9 80/114/9 52/117/9 49/123/9
f 82/124/1 83/125/1 55/126/1 54/127/1
f 79/128/9 82/124/9 54/127/9 51/129/9
f 86/130/8 70/131/8 56/132/8 84/133/8
f 85/134/10 84/135/10 56/136/10 57/137/10
f 83/125/11 85/134/11 57/137/11 55/126/11
f 57/137/20 56/136/20 70/138/20 71/139/20
f 55/126/21 57/137/21 71/139/21 69/140/21
f 54/127/3 55/126/3 69/140/3 68/141/3
f 52/142/3 53/120/3 67/119/3 66/143/3
f 51/129/9 54/127/9 68/141/9 65/144/9
f 49/145/9 52/142/9 66/143/9 63/146/9
f 50/147/8 53/116/8 81/115/8 78/148/8
f 48/149/14 76/150/14 75/151/14 47/152/14
f 46/153/15 74/154/15 76/150/15 48/149/15
f 45/155/16 73/156/16 74/154/16 46/153/16
f 44/157/1 72/158/1 73/156/1 45/155/1
f 101/159/2 87/160/2 88/161/2 102/162/2
f 102/162/5 88/161/5 89/163/5 103/164/5
f 105/165/6 91/166/6 90/167/6 104/168/6
f 103/164/7 89/163/7 91/166/7 105/165/7
f 123/169/4 124/170/4 96/171/4 95/172/4
f 107/173/8 110/174/8 96/175/8 93/176/8
f 120/177/9 123/169/9 95/172/9 92/178/9
f 125/179/4 126/180/4 98/181/4 97/182/4
f 122/183/9 125/179/9 97/182/9 94/184/9
f 129/185/8 113/186/8 99/187/8 127/188/8
f 128/189/22 127/190/22 99/191/22 100/192/22
f 126/180/23 128/189/23 100/192/23 98/181/23
f 100/192/12 99/191/12 113/193/12 114/194/12
f 98/181/13 100/192/13 114/194/13 112/195/13
f 97/182/2 98/181/2 112/195/2 111/196/2
f 95/197/2 96/175/2 110/174/2 109/198/2
f 94/184/9 97/182/9 111/196/9 108/199/9
f 92/200/9 95/197/9 109/198/9 106/201/9
f 93/202/8 96/171/8 124/170/8 121/203/8
f 91/204/24 119/205/24 118/206/24 90/207/24
f 89/208/25 117/209/25 119/205/25 91/204/25
f 88/210/26 116/211/26 117/209/26 89/208/26
f 87/212/4 115/213/4 116/211/4 88/210/4
f 144/214/3 145/215/3 131/216/3 130/217/3
f 145/215/17 146/218/17 132/219/17 131/216/17
f 148/220/18 147/221/18 133/222/18 134/223/18
f 146/218/19 148/220/19 134/223/19 132/219/19
f 166/224/4 138/225/4 139/226/4 167/227/4
f 150/228/8 136/229/8 139/230/8 153/231/8
f 163/232/9 135/233/9 138/225/9 166/224/9
f 168/234/4 140/235/4 141/236/4 169/237/4
f 165/238/9 137/239/9 140/235/9 168/234/9
f 172/240/8 170/241/8 142/242/8 156/243/8
f 171/244/22 143/245/22 142/246/22 170/247/22
f 169/237/23 141/236/23 143/245/23 171/244/23
f 143/245/20 157/248/20 156/249/20 142/246/20
f 141/236/21 155/250/21 157/248/21 143/245/21
f 140/235/3 154/251/3 155/250/3 141/236/3
f 138/252/3 152/253/3 153/231/3 139/230/3
f 137/239/9 151/254/9 154/251/9 140/235/9
f 135/255/9 149/256/9 152/253/9 138/252/9
f 136/257/8 164/258/8 167/227/8 139/226/8
f 134/259/24 133/260/24 161/261/24 162/262/24
f 132/263/25 134/259/25 162/262/25 160/264/25
f 131/265/26 132/263/26 160/264/26 159/266/26
f 130/267/4 131/265/4 159/266/4 158/268/4
