# Blender v2.91.0 OBJ File: 'Roof_Flat.blend'
# www.blender.org
mtllib Roof_Flat.mtl
o Roof_Flat_TexturesCom_Pavement_CobblestoneOld_1K_albedo.046
v -1.799999 5.459779 1.800001
v -1.999999 5.389412 1.800001
v -1.999999 5.389412 2.000001
v -1.799999 5.389412 2.000000
v -1.799999 5.389412 1.800001
v 0.000000 5.459779 1.800000
v 1.799999 5.459779 1.800001
v 1.999999 5.389412 1.800001
v 1.999999 5.389412 2.000001
v 1.799999 5.389412 2.000000
v 0.000000 5.389412 2.000000
v 0.000000 5.389412 1.800000
v 1.799999 5.389412 1.800001
v -1.799999 5.459779 0.000000
v -1.799999 5.459779 -1.800001
v -1.999999 5.389412 -1.800001
v -1.999999 5.389412 -2.000001
v -1.799999 5.389412 -2.000000
v -2.000000 5.389412 0.000000
v -1.799999 5.389412 -1.800001
v -1.799999 5.389412 0.000000
v 0.000000 5.459779 0.000000
v 0.000000 5.459779 -1.800000
v 1.799999 5.459779 0.000000
v 1.799999 5.459779 -1.800001
v 1.999999 5.389412 -1.800001
v 1.999999 5.389412 -2.000001
v 1.799999 5.389412 -2.000000
v 0.000000 5.389412 -2.000000
v 0.000000 5.389412 -1.800000
v 2.000000 5.389412 0.000000
v 1.799999 5.389412 -1.800001
v 1.799999 5.389412 0.000000
vt 0.962570 0.423088
vt 0.581175 0.040888
vt 0.962570 0.040888
vt 0.581175 0.040888
vt 0.962570 0.423088
vt 0.581175 0.423088
vt 0.581175 0.423088
vt 0.581175 0.423088
vt 0.581175 0.423088
vt 0.000100 0.052710
vt 0.052711 0.000100
vt 0.052711 0.052710
vt 0.526205 0.000100
vt 0.526205 0.052711
vt 0.000100 0.526205
vt 0.052711 0.526205
vt 0.526205 0.089538
vt 0.052711 0.089538
vt 0.089538 0.052710
vt 0.089538 0.526205
vt 0.052711 0.000100
vt 0.000100 0.052710
vt 0.052711 0.052710
vt 0.526205 0.000100
vt 0.526205 0.052711
vt 0.526205 0.089538
vt 0.052711 0.089538
vt 0.089538 0.052710
vt 0.052711 0.000100
vt 0.000100 0.052710
vt 0.052711 0.052710
vt 0.000100 0.526205
vt 0.052711 0.526205
vt 0.052711 0.089538
vt 0.089538 0.052710
vt 0.089538 0.526205
vt 0.000100 0.052710
vt 0.052711 0.000100
vt 0.052711 0.052710
vt 0.052711 0.089538
vt 0.089538 0.052710
vt 0.000100 0.000100
vt 0.000100 0.000100
vt 0.000100 0.000100
vt 0.000100 0.000100
vn 0.0000 -1.0000 0.0000
vn 1.0000 0.0000 -0.0000
vn -0.0000 0.0000 -1.0000
vn -1.0000 0.0000 -0.0000
vn -0.0000 0.0000 1.0000
usemtl Wall
s off
f 6/1/1 14/2/1 22/3/1
f 24/4/1 6/1/1 22/3/1
f 14/2/1 23/5/1 22/3/1
f 23/5/1 24/4/1 22/3/1
f 6/1/1 1/6/1 14/2/1
f 24/4/1 7/7/1 6/1/1
f 14/2/1 15/8/1 23/5/1
f 23/5/1 25/9/1 24/4/1
usemtl Concrete
f 4/10/1 2/11/1 5/12/1
f 5/12/1 19/13/1 21/14/1
f 11/15/1 5/12/1 12/16/1
f 5/12/2 14/17/2 1/18/2
f 12/16/3 1/19/3 6/20/3
f 8/21/1 10/22/1 13/23/1
f 31/24/1 13/23/1 33/25/1
f 13/23/1 11/15/1 12/16/1
f 24/26/4 13/23/4 7/27/4
f 7/28/3 12/16/3 6/20/3
f 16/29/1 18/30/1 20/31/1
f 19/13/1 20/31/1 21/14/1
f 20/31/1 29/32/1 30/33/1
f 14/17/2 20/31/2 15/34/2
f 15/35/5 30/33/5 23/36/5
f 28/37/1 26/38/1 32/39/1
f 32/39/1 31/24/1 33/25/1
f 29/32/1 32/39/1 30/33/1
f 32/39/4 24/26/4 25/40/4
f 30/33/5 25/41/5 23/36/5
f 4/10/1 3/42/1 2/11/1
f 5/12/1 2/11/1 19/13/1
f 11/15/1 4/10/1 5/12/1
f 5/12/2 21/14/2 14/17/2
f 12/16/3 5/12/3 1/19/3
f 8/21/1 9/43/1 10/22/1
f 31/24/1 8/21/1 13/23/1
f 13/23/1 10/22/1 11/15/1
f 24/26/4 33/25/4 13/23/4
f 7/28/3 13/23/3 12/16/3
f 16/29/1 17/44/1 18/30/1
f 19/13/1 16/29/1 20/31/1
f 20/31/1 18/30/1 29/32/1
f 14/17/2 21/14/2 20/31/2
f 15/35/5 20/31/5 30/33/5
f 28/37/1 27/45/1 26/38/1
f 32/39/1 26/38/1 31/24/1
f 29/32/1 28/37/1 32/39/1
f 32/39/4 33/25/4 24/26/4
f 30/33/5 32/39/5 25/41/5
